<?xml version="1.0" encoding="utf-8"?>
<!-- Generator: Adobe Illustrator 26.1.0, SVG Export Plug-In . SVG Version: 6.00 Build 0)  -->
<svg version="1.1" id="Capa_1" xmlns="http://www.w3.org/2000/svg" xmlns:xlink="http://www.w3.org/1999/xlink" x="0px" y="0px"
	 viewBox="0 0 1051.41 122.82" style="enable-background:new 0 0 1051.41 122.82;" xml:space="preserve">
<style type="text/css">
	.st0{fill:#1F4C98;}
	.st1{fill:#DF142D;}
	.st2{fill:#F9B41F;}
	.st3{fill:#01053D;}
	.st4{font-family:'Nexa-Heavy';}
	.st5{font-size:51.4889px;}
	.st6{fill:#CD1D2A;}
</style>
<g>
	<g>
		<g>
			<path class="st0" d="M792.72,43.96h-11.46v5.73h20.19v7.33h-28.91V24.47h27.82v7.33h-19.09v5.13h11.46v7.03H792.72z"/>
			<path class="st0" d="M838.38,51.39c-3.94,3.49-9.82,6.63-17,6.63c-10.92,0-18.14-7.78-18.14-17.3c0-9.32,7.28-17.25,17.9-17.25
				c5.98,0,12.06,2.29,16.25,5.58l-5.23,5.68c-3.04-2.49-6.98-3.94-9.92-3.94c-6.03,0-9.92,4.54-9.92,9.97s3.99,9.97,10.17,9.97
				c3.79,0,7.73-2.24,10.62-4.93L838.38,51.39z"/>
			<path class="st0" d="M872.53,24.47v20.69c0,8.22-6.38,12.86-15.3,12.86c-8.52,0-15.25-4.64-15.25-12.86V24.47h8.77v20.69
				c0,3.64,2.99,5.58,6.48,5.58c3.84,0,6.58-1.94,6.58-5.58V24.47H872.53z"/>
			<path class="st0" d="M874.72,57.02l15.11-32.55h7.23l15.11,32.55h-9.52l-2.09-4.98H886l-2.04,4.98H874.72z M888.78,45.26h8.97
				l-4.34-10.42h-0.3L888.78,45.26z"/>
			<path class="st0" d="M915.55,57.02V24.47h15.01c6.08,0,10.57,1.7,13.61,4.89c2.79,2.94,4.34,6.93,4.34,11.37
				c0,4.54-1.6,8.72-4.59,11.66c-2.84,2.79-6.93,4.64-13.36,4.64L915.55,57.02L915.55,57.02z M930.36,49.69
				c3.34,0,5.03-0.75,6.48-2.14c1.69-1.65,2.64-3.69,2.64-6.73c0-2.84-0.85-4.93-2.39-6.58c-1.45-1.54-3.14-2.44-6.73-2.44h-6.08
				v17.9L930.36,49.69L930.36,49.69z"/>
			<path class="st0" d="M969.94,23.47c10.37,0,18.69,7.73,18.69,17.2c0,9.62-8.33,17.35-18.69,17.35c-10.37,0-18.5-7.73-18.5-17.35
				C951.45,31.2,959.57,23.47,969.94,23.47z M969.94,50.74c5.38,0,9.62-4.59,9.62-10.07c0-5.38-4.24-9.87-9.62-9.87
				c-5.33,0-9.47,4.49-9.47,9.87C960.47,46.15,964.61,50.74,969.94,50.74z"/>
			<path class="st0" d="M993.97,57.02V24.47h18.14c4.93,0,8.03,1.45,10.12,3.64c1.74,1.84,2.79,4.24,2.79,6.93
				c0,3.99-2.29,7.13-5.98,9.02l7.48,12.96h-9.87l-6.23-11.46h-7.73v11.46H993.97z M1002.69,31.55v6.93h9.92
				c2.04,0,3.69-1.25,3.69-3.49c0-0.9-0.35-1.8-0.95-2.44c-0.8-0.85-1.85-1-2.74-1H1002.69z"/>
		</g>
		<g>
			<path class="st0" d="M808.15,92.72c-3.94,3.49-9.82,6.63-17,6.63c-10.92,0-18.14-7.78-18.14-17.3c0-9.32,7.28-17.25,17.9-17.25
				c5.98,0,12.06,2.29,16.25,5.58l-5.23,5.68c-3.04-2.49-6.98-3.94-9.92-3.94c-6.03,0-9.92,4.54-9.92,9.97s3.99,9.97,10.17,9.97
				c3.79,0,7.73-2.24,10.62-4.93L808.15,92.72z"/>
			<path class="st0" d="M842.3,65.8v20.69c0,8.22-6.38,12.86-15.3,12.86c-8.52,0-15.25-4.64-15.25-12.86V65.8h8.77v20.69
				c0,3.64,2.99,5.58,6.48,5.58c3.84,0,6.58-1.94,6.58-5.58V65.8H842.3z"/>
			<path class="st0" d="M849.78,98.35V65.8h18.15c4.64,0,7.98,1.3,10.22,3.74c1.7,1.84,2.69,4.19,2.69,6.83
				c0,2.84-1.2,5.38-3.19,7.28c-2.14,2.04-5.19,3.24-9.72,3.24h-9.42v11.46H849.78z M858.5,72.88v6.93h9.92c1.1,0,1.99-0.3,2.59-0.9
				c0.65-0.65,1.1-1.59,1.1-2.54s-0.4-1.89-1.05-2.54c-0.7-0.7-1.65-0.95-2.64-0.95H858.5z"/>
			<path class="st0" d="M901.17,64.81c10.37,0,18.69,7.73,18.69,17.2c0,9.62-8.32,17.35-18.69,17.35s-18.49-7.73-18.49-17.35
				C882.68,72.53,890.8,64.81,901.17,64.81z M901.17,92.07c5.38,0,9.62-4.59,9.62-10.07c0-5.38-4.24-9.87-9.62-9.87
				c-5.33,0-9.47,4.49-9.47,9.87C891.7,87.49,895.84,92.07,901.17,92.07z"/>
			<path class="st0" d="M955.76,65.8v32.55h-7.38l-14.36-17.7h-0.05v17.7h-8.77V65.8h7.33l14.41,17.75h0.05V65.8H955.76z"/>
		</g>
	</g>
	<g>
		<g>
			<path class="st1" d="M751.3,25.55l-13.17,7.61c2.79,4.59,4.4,9.99,4.4,15.75c0,3.06-0.46,6.02-1.3,8.81l13.49,7.79
				c0.41-1.16,0.78-2.33,1.11-3.51c1.13-4,1.81-8.07,1.9-12.15c0-0.11,0.01-0.21,0.01-0.32c0-0.2,0-0.41,0-0.62
				C757.74,40.37,755.39,32.38,751.3,25.55z"/>
			<path class="st0" d="M685.52,34.21l-13.18-7.61c-3.71,6.6-5.82,14.21-5.82,22.31c0,2.51,0.2,4.97,0.6,7.37
				c0.03,0.18,0.06,0.37,0.09,0.56c0.17,0.96,0.39,1.99,0.65,3.09c0,0.01,0,0.03,0.01,0.04c0.33,1.35,0.73,2.82,1.22,4.38
				l13.59-7.85c-0.62-2.43-0.96-4.98-0.96-7.6C681.73,43.58,683.11,38.57,685.52,34.21z"/>
			<path class="st1" d="M715.88,3.46v15.28c6.8,0.84,12.9,3.91,17.55,8.48l13.5-7.79C739.32,10.46,728.3,4.46,715.88,3.46z"/>
			<path class="st0" d="M676.55,20.38l13.41,7.74c4.73-5.06,11.19-8.49,18.42-9.38V3.46C695.52,4.5,684.17,10.88,676.55,20.38z"/>
			<path class="st2" d="M738.16,64.61c-5.32,8.81-14.99,14.7-26.03,14.7c-11.48,0-21.47-6.36-26.64-15.76l-13.72,7.92
				c5.58,12.89,17.05,30.01,40.5,47.9c0,0,27.28-20.88,39.58-46.86L738.16,64.61z"/>
		</g>
		<circle class="st2" cx="712.11" cy="48.96" r="16.9"/>
	</g>
</g>
<text transform="matrix(1 0 0 1 399.6594 58.0198)"><tspan x="0" y="0" class="st3 st4 st5">WEB</tspan><tspan x="-112.58" y="45.5" class="st3 st4 st5">REVOLUTION</tspan></text>
<g>
	<g>
		<g>
			<path class="st3" d="M40.16,103.24l-2.07,6.13l-1.5,5.74l-4.08-11.87h-2.54l-3.91,11.87l-1.57-5.77l-2.17-6.1h-4.36l6.5,17.84
				h3.19l3.61-9.98l3.74,9.98h3.19l6.33-17.84H40.16z"/>
			<path class="st3" d="M50.39,117.44v-3.6h8.59v-3.5h-8.59v-3.45h9.12v-3.65H46.58v17.87h13.27v-3.68H50.39z"/>
			<path class="st3" d="M75.25,111.74c1.67-0.79,2.32-2.17,2.32-3.65c0-3.32-2.74-4.85-6.05-4.85h-8.59v17.87h8.74
				c3.49,0,5.83-1.3,6.35-4.19C78.39,114.86,77.47,112.56,75.25,111.74z M66.73,106.69h4.78c1.47,0,2.21,0.76,2.21,1.81
				c0,1.05-0.75,1.69-2.26,1.69h-4.74V106.69z M71.52,117.64h-4.78v-4.14h4.74c1.72,0,2.61,0.84,2.61,2.09
				C74.08,116.85,73.26,117.64,71.52,117.64z"/>
			<path class="st3" d="M97.62,114.88c3.33-1.23,4.01-3.29,4.03-5.61c0-3.14-2.24-6.02-6.45-6.02h-8.27v17.87h3.89v-5.87h2.81
				l4.46,5.87h4.31v-0.31L97.62,114.88z M95.25,111.87h-4.43v-5.2h4.38c1.82,0,2.59,1.48,2.62,2.7
				C97.82,110.49,97.04,111.87,95.25,111.87z"/>
			<path class="st3" d="M108.8,117.44v-3.6h8.59v-3.5h-8.59v-3.45h9.11v-3.65h-12.93v17.87h13.28v-3.68H108.8z"/>
			<path class="st3" d="M133.48,103.24l-4.9,13.2l-4.9-13.2h-4.36l7.27,17.94h4.01l7.25-17.94H133.48z"/>
			<path class="st3" d="M147.58,102.81c-5.58,0-9.41,3.55-9.41,9.37c0,5.82,3.83,9.37,9.41,9.37c5.58,0,9.41-3.55,9.41-9.37
				C156.99,106.36,153.16,102.81,147.58,102.81z M147.58,117.94c-3.31,0-5.61-2.42-5.61-5.77c0-3.24,2.29-5.8,5.61-5.8
				c3.38,0,5.6,2.53,5.6,5.8C153.18,115.49,150.96,117.94,147.58,117.94z"/>
			<path class="st3" d="M163.77,117.46v-14.22h-3.89v17.87h12.6v-3.65H163.77z"/>
			<path class="st3" d="M186.31,103.27v9.98c0,2.68-0.94,4.54-3.59,4.72c-2.84,0.13-4.58-1.53-4.58-4.72v-9.98h-3.86v9.98
				c0,5.77,3.86,8.45,8.42,8.29c4.58-0.15,7.47-2.99,7.47-8.29v-9.98H186.31z"/>
			<path class="st3" d="M192.28,103.24v3.55h5.3v14.32h3.86v-14.32h5.3v-3.55H192.28z"/>
			<path class="st3" d="M209.12,103.24v17.87h3.86v-17.87H209.12z"/>
			<path class="st3" d="M225.28,102.81c-5.58,0-9.41,3.55-9.41,9.37c0,5.82,3.84,9.37,9.41,9.37c5.58,0,9.41-3.55,9.41-9.37
				C234.7,106.36,230.86,102.81,225.28,102.81z M225.28,117.94c-3.31,0-5.6-2.42-5.6-5.77c0-3.24,2.29-5.8,5.6-5.8
				c3.39,0,5.61,2.53,5.61,5.8C230.89,115.49,228.67,117.94,225.28,117.94z"/>
			<path class="st3" d="M249.47,103.24v6l0.25,5.61l-8.79-11.61h-3.33v17.87h3.93v-5.57l-0.15-5.87l8.67,11.43h3.33v-17.87H249.47z"
				/>
		</g>
		<g>
			<g>
				<g>
					<path class="st6" d="M222.49,36.91c0,5.55-2.92,10.41-7.26,13.05c-2.21,1.35-4.79,2.12-7.54,2.12h-30.04l0.92-2.12h29.13
						c7.04,0,12.74-5.84,12.74-13.05c0-7.21-5.7-13.05-12.74-13.05H163.7l0.92-2.12h43.07c2.75,0,5.33,0.77,7.54,2.12
						C219.57,26.49,222.49,31.35,222.49,36.91z"/>
					<path class="st6" d="M234.31,36.91c0,4.73-1.17,9.18-3.24,13.05c-0.38,0.73-0.8,1.43-1.25,2.12c-0.44,0.67-0.91,1.32-1.41,1.95
						c-0.58,0.74-1.19,1.45-1.85,2.12c-0.67,0.68-1.38,1.34-2.11,1.95c-0.93,0.77-1.9,1.48-2.92,2.12
						c-0.45,0.28-0.92,0.56-1.39,0.81c-0.62,0.34-1.26,0.65-1.92,0.94c-0.09,0.04-0.17,0.08-0.26,0.12
						c-0.53,0.23-1.08,0.44-1.63,0.64c-0.71,0.25-1.43,0.47-2.16,0.65c-0.7,0.18-1.4,0.33-2.12,0.45c-0.8,0.14-1.62,0.24-2.45,0.3
						c-0.64,0.05-1.28,0.07-1.94,0.07h-35.3l0.92-2.12h34.65c0.87-0.01,1.72-0.07,2.56-0.17c0.74-0.09,1.47-0.2,2.19-0.36
						c0.75-0.15,1.49-0.35,2.21-0.58c0.65-0.2,1.29-0.44,1.92-0.7c0.04-0.01,0.09-0.04,0.13-0.05c0.62-0.25,1.23-0.54,1.82-0.85
						c0.75-0.38,1.46-0.81,2.16-1.27c0.9-0.59,1.76-1.24,2.58-1.95c0.77-0.65,1.49-1.37,2.17-2.12c0.56-0.63,1.09-1.27,1.59-1.95
						c0.5-0.68,0.97-1.39,1.41-2.12c2.26-3.81,3.56-8.27,3.56-13.05s-1.3-9.25-3.56-13.05c-0.43-0.73-0.9-1.43-1.41-2.12
						c-0.5-0.68-1.04-1.33-1.6-1.96c-0.68-0.75-1.41-1.46-2.17-2.12c-0.77-0.67-1.59-1.29-2.44-1.86c-1.23-0.82-2.53-1.54-3.9-2.12
						c-2.92-1.26-6.12-1.95-9.48-1.95h-38.73l0.92-2.12h37.81c3.65,0,7.12,0.75,10.29,2.12c1.29,0.55,2.52,1.2,3.7,1.95
						c1.01,0.64,1.98,1.35,2.9,2.12c0.69,0.58,1.36,1.21,1.99,1.86c0.65,0.67,1.27,1.38,1.85,2.12c0.5,0.63,0.97,1.28,1.41,1.96
						c0.45,0.68,0.87,1.39,1.25,2.12C233.14,27.73,234.31,32.18,234.31,36.91z"/>
					<g>
						<path class="st6" d="M248.47,95.59h-2.69l-1.1-1.34l-0.64-0.78l-1.15-1.41l-1.64-2.01l-1.79-2.19L220.9,65.19
							c-0.01,0.01-0.02,0.01-0.02,0.01c-0.59,0.29-1.19,0.57-1.8,0.8l20.02,24.46l1.79,2.2l0.66,0.8l0.99,1.2l0.74,0.92h-2.69
							l-0.09-0.11l-1.64-2.01l-0.14-0.18L217,66.78c0,0-0.01,0-0.01,0c-0.65,0.22-1.32,0.41-1.99,0.58l21.38,26.11l1.73,2.12h-2.69
							l-1.73-2.12L212.7,67.84c0,0.01-0.01,0.01-0.02,0.01c-0.7,0.12-1.41,0.21-2.11,0.28l20.76,25.35l1.73,2.12h-2.71l-1.73-2.12
							l-20.64-25.21h-2.48l20.64,25.21l1.73,2.12h-2.69l-1.73-2.12l-20.65-25.21h-32.16l0.92-2.11h36.16c0.4,0,0.81-0.01,1.2-0.02
							h0.02c0.75-0.04,1.48-0.1,2.21-0.19c0.01,0,0.01,0,0.02,0c0.79-0.1,1.58-0.23,2.34-0.4c0,0,0.01,0,0.02,0
							c0.69-0.14,1.37-0.31,2.03-0.51c0,0,0.01-0.01,0.02-0.01c0.71-0.2,1.41-0.44,2.09-0.71c0.01,0,0.01,0,0.02,0
							c0.1-0.04,0.2-0.07,0.29-0.12c0.52-0.2,1.04-0.43,1.55-0.66c0.01-0.01,0.02-0.01,0.02-0.01c0.64-0.3,1.26-0.62,1.87-0.97
							c0,0,0.01,0,0.01-0.01c0.27-0.14,0.54-0.3,0.8-0.46c0.94-0.57,1.85-1.19,2.71-1.86c0.85-0.66,1.66-1.37,2.43-2.12
							c0.63-0.62,1.24-1.27,1.82-1.95c0.58-0.68,1.13-1.38,1.65-2.12c0.44-0.63,0.86-1.28,1.26-1.95c0.41-0.68,0.8-1.4,1.14-2.12
							c1.92-3.93,3-8.36,3-13.05c0-4.7-1.08-9.12-3-13.05c-0.35-0.72-0.73-1.43-1.14-2.12c-0.4-0.67-0.82-1.32-1.26-1.96
							c-0.52-0.74-1.07-1.44-1.65-2.12c-0.56-0.64-1.13-1.26-1.73-1.86c-0.76-0.76-1.56-1.45-2.41-2.11
							c-0.89-0.71-1.84-1.36-2.82-1.95c-1.35-0.82-2.77-1.53-4.25-2.11c-3.19-1.27-6.65-1.96-10.27-1.96h-36.96l0.92-2.11h36.05
							c3.89,0,7.62,0.74,11.05,2.11c1.39,0.55,2.74,1.21,4.02,1.96c1.1,0.64,2.16,1.34,3.17,2.11c0.8,0.61,1.58,1.26,2.31,1.95
							c0.72,0.67,1.41,1.37,2.07,2.11c0.53,0.6,1.04,1.22,1.53,1.86c0.52,0.69,1.01,1.39,1.47,2.12c0.41,0.64,0.8,1.29,1.16,1.96
							c0.37,0.69,0.72,1.4,1.04,2.12c1.78,3.98,2.78,8.4,2.78,13.05c0,4.66-0.99,9.08-2.78,13.05c-0.31,0.72-0.67,1.43-1.04,2.12
							c-0.36,0.66-0.74,1.32-1.15,1.95c-0.46,0.72-0.95,1.43-1.47,2.12c-0.5,0.68-1.04,1.32-1.61,1.95
							c-0.66,0.74-1.35,1.45-2.08,2.12c-0.71,0.66-1.45,1.28-2.21,1.86c-1.01,0.77-2.07,1.48-3.17,2.11l17.08,20.86l1.78,2.19
							l1.65,2.02l1.78,2.18l1.57,1.92l0.1,0.12l1.68,2.05L248.47,95.59z"/>
						<path class="st6" d="M207.97,54.03c-0.09,0.01-0.19,0.01-0.28,0.01s-0.19,0-0.28-0.01H207.97z"/>
					</g>
					<path class="st6" d="M230.39,36.95c0,4.82-1.43,9.29-3.88,13.01c-0.48,0.73-1.02,1.45-1.58,2.12
						c-0.58,0.68-1.18,1.33-1.82,1.95c-0.81,0.76-1.68,1.48-2.59,2.12c-1.06,0.74-2.18,1.4-3.35,1.95
						c-2.88,1.36-6.09,2.12-9.48,2.12h-33.58l0.92-2.12h32.66c3.1,0,6.03-0.7,8.66-1.95c1.24-0.58,2.41-1.3,3.51-2.12
						c0.8-0.6,1.55-1.24,2.24-1.95c0.67-0.66,1.28-1.37,1.85-2.12c2.73-3.59,4.37-8.11,4.37-13.01c0-4.94-1.65-9.5-4.44-13.1
						c-0.58-0.75-1.21-1.46-1.87-2.12c-0.72-0.71-1.48-1.37-2.29-1.96c-1.11-0.83-2.31-1.54-3.58-2.12
						c-2.58-1.19-5.44-1.86-8.46-1.86h-40.5l0.92-2.12h39.58c3.39,0,6.6,0.76,9.48,2.12c1.12,0.53,2.2,1.15,3.22,1.86
						c0.92,0.64,1.8,1.35,2.63,2.12c0.65,0.62,1.27,1.27,1.85,1.96c0.57,0.67,1.1,1.38,1.59,2.12
						C228.93,27.59,230.39,32.09,230.39,36.95z"/>
					<path class="st6" d="M226.46,36.91c0,5.03-1.89,9.63-4.98,13.05c-0.69,0.76-1.44,1.48-2.25,2.12c-0.92,0.74-1.92,1.4-2.98,1.95
						c-2.56,1.35-5.47,2.12-8.55,2.12h-31.81l0.92-2.12h30.61c0.09,0.01,0.19,0.01,0.28,0.01s0.19,0,0.28-0.01
						c2.7-0.04,5.24-0.74,7.48-1.95c1.1-0.59,2.12-1.3,3.05-2.12c3.61-3.14,5.9-7.82,5.9-13.05s-2.29-9.92-5.9-13.05
						c-0.93-0.81-1.95-1.53-3.05-2.12c-2.31-1.25-4.96-1.96-7.76-1.96h-42.22l0.92-2.12h41.3c3.08,0,5.99,0.76,8.55,2.12
						c1.06,0.55,2.06,1.21,2.98,1.96c0.81,0.64,1.56,1.35,2.25,2.12C224.57,27.28,226.46,31.87,226.46,36.91z"/>
				</g>
			</g>
			<g>
				<polygon class="st3" points="180.45,29.97 152.85,93.5 150.59,93.5 149.56,91.1 148.42,88.5 147.38,86.09 146.25,83.5 
					145.25,81.21 144.13,78.61 143.08,76.2 141.95,73.61 113.52,8.15 112.47,10.56 140.91,76.01 142.04,78.61 143.08,81.02 
					144.21,83.61 145.21,85.91 146.33,88.5 147.38,90.9 148.51,93.5 146.25,93.5 145.21,91.1 144.07,88.51 143.08,86.22 
					141.95,83.62 140.91,81.21 139.78,78.61 111.35,13.16 110.3,15.55 138.73,81.01 139.87,83.61 140.91,86.01 142.04,88.61 
					143.03,90.9 144.16,93.5 141.9,93.5 140.91,91.22 139.78,88.62 138.73,86.22 137.61,83.61 109.17,18.16 108.18,20.45 
					136.61,85.89 137.74,88.5 138.79,90.9 139.92,93.5 137.66,93.5 136.61,91.1 135.48,88.5 107.05,23.05 106.01,25.45 134.43,90.9 
					135.57,93.5 133.31,93.5 104.87,28.06 76.45,93.5 74.17,93.5 73.14,91.11 72.01,88.52 70.96,86.11 69.84,83.51 68.84,81.23 
					67.71,78.62 66.67,76.22 65.54,73.61 36.88,7.66 35.97,5.56 38.23,5.56 39.15,7.66 66.67,71.01 94.19,7.66 95.1,5.56 95.1,5.56 
					97.36,5.56 96.44,7.66 96.23,8.16 67.8,73.61 68.84,76.01 97.28,10.57 98.41,7.95 98.53,7.66 99.45,5.56 101.72,5.56 
					100.8,7.66 100.58,8.16 99.53,10.56 98.41,13.18 69.97,78.62 70.96,80.9 99.4,15.46 100.53,12.85 101.57,10.44 102.7,7.85 
					102.78,7.66 103.7,5.56 105.96,5.56 105.04,7.66 104.83,8.16 103.83,10.45 102.71,13.05 101.66,15.45 100.53,18.05 72.1,83.51 
					73.14,85.91 101.57,20.46 102.7,17.85 103.74,15.44 104.88,12.85 105.87,10.56 107,7.95 107.12,7.66 108.05,5.56 110.3,5.56 
					110.3,5.56 109.39,7.66 109.17,8.15 108.13,10.56 107,13.16 106.01,15.45 104.88,18.05 103.83,20.46 102.7,23.05 74.27,88.5 
					75.31,90.9 103.74,25.46 104.88,22.86 105.92,20.46 107.05,17.85 108.05,15.57 109.17,12.96 110.22,10.56 111.35,7.97 
					111.47,7.66 112.39,5.56 114.64,5.56 114.65,5.56 115.56,7.66 143.08,71.01 160.9,29.97 163.17,29.97 144.21,73.61 
					145.25,76.01 165.25,29.97 167.52,29.97 146.38,78.61 147.38,80.9 169.5,29.97 171.76,29.97 148.5,83.5 149.55,85.89 
					173.85,29.97 176.11,29.97 150.69,88.5 151.72,90.9 178.19,29.97 				"/>
				<polygon class="st3" points="59.15,93.5 56.89,93.5 19.6,7.66 18.69,5.55 20.94,5.55 21.86,7.66 58.02,90.91 				"/>
				<polygon class="st3" points="63.5,93.5 61.24,93.5 60.2,91.11 59.07,88.51 23.95,7.66 23.03,5.55 25.3,5.55 26.21,7.66 
					60.2,85.9 61.33,88.51 62.37,90.91 				"/>
				<polygon class="st3" points="67.74,93.5 65.49,93.5 64.5,91.22 63.36,88.62 62.32,86.22 61.19,83.62 28.2,7.66 27.28,5.55 
					29.54,5.55 30.46,7.66 62.32,81.01 63.46,83.62 64.5,86.02 65.63,88.62 66.62,90.91 				"/>
				<polygon class="st3" points="72.1,93.5 69.83,93.5 68.79,91.11 67.67,88.51 66.67,86.22 65.54,83.62 64.49,81.22 63.36,78.61 
					32.54,7.66 31.62,5.55 33.89,5.55 34.81,7.66 64.5,76.01 65.63,78.61 66.67,81.01 67.8,83.62 68.79,85.9 69.92,88.51 
					70.97,90.91 				"/>
			</g>
		</g>
	</g>
	<g>
		<path class="st3" d="M253.42,13.32c0,4.22-2.75,7.77-7.69,7.77c-4.92,0-7.69-3.56-7.69-7.77c0-4.24,2.77-7.77,7.69-7.77
			C250.68,5.55,253.42,9.08,253.42,13.32z M245.74,20.13c4.22,0,6.62-3.02,6.62-6.81c0-3.81-2.41-6.83-6.62-6.83
			c-4.22,0-6.6,3.02-6.6,6.83C239.14,17.11,241.52,20.13,245.74,20.13z M246.53,9.13h-3.62v8.15h1v-3.07h1.77l2.66,3.07h1.11v-0.17
			l-2.55-2.9C250.12,13.81,250,9.13,246.53,9.13z M243.91,10.11h2.62c2.3,0,2.26,3.21-0.06,3.21h-2.56V10.11z"/>
	</g>
</g>
</svg>
